<svg width="28" height="28" viewBox="0 0 28 28" fill="none" xmlns="http://www.w3.org/2000/svg">
<g id="Frame 27">
<path id="Cart" d="M22.4 22.4C23.1426 22.4 23.8548 22.695 24.3799 23.2201C24.905 23.7452 25.2 24.4574 25.2 25.2C25.2 25.9426 24.905 26.6548 24.3799 27.1799C23.8548 27.705 23.1426 28 22.4 28C21.6574 28 20.9452 27.705 20.4201 27.1799C19.895 26.6548 19.6 25.9426 19.6 25.2C19.6 23.646 20.846 22.4 22.4 22.4ZM0 0H4.578L5.894 2.8H26.6C26.9713 2.8 27.3274 2.9475 27.59 3.21005C27.8525 3.4726 28 3.8287 28 4.2C28 4.438 27.93 4.676 27.832 4.9L22.82 13.958C22.344 14.812 21.42 15.4 20.37 15.4H9.94L8.68 17.682L8.638 17.85C8.638 17.9428 8.67487 18.0318 8.74051 18.0975C8.80615 18.1631 8.89517 18.2 8.988 18.2H25.2V21H8.4C7.65739 21 6.9452 20.705 6.4201 20.1799C5.895 19.6548 5.6 18.9426 5.6 18.2C5.6 17.71 5.726 17.248 5.936 16.856L7.84 13.426L2.8 2.8H0V0ZM8.4 22.4C9.14261 22.4 9.8548 22.695 10.3799 23.2201C10.905 23.7452 11.2 24.4574 11.2 25.2C11.2 25.9426 10.905 26.6548 10.3799 27.1799C9.8548 27.705 9.14261 28 8.4 28C7.65739 28 6.9452 27.705 6.4201 27.1799C5.895 26.6548 5.6 25.9426 5.6 25.2C5.6 23.646 6.846 22.4 8.4 22.4ZM21 12.6L24.892 5.6H7.196L10.5 12.6H21Z" fill="#2C1508"/>
</g>
</svg>
